<?xml version="1.0" standalone="no"?>
<!DOCTYPE svg PUBLIC "-//W3C//DTD SVG 20010904//EN"
 "http://www.w3.org/TR/2001/REC-SVG-20010904/DTD/svg10.dtd">
<svg version="1.0" xmlns="http://www.w3.org/2000/svg"
 width="700.000000pt" height="700.000000pt" viewBox="0 0 700.000000 700.000000"
 preserveAspectRatio="xMidYMid meet">
<metadata>
Created by potrace 1.14, written by Peter Selinger 2001-2017
</metadata>
<g transform="translate(0.000000,700.000000) scale(0.100000,-0.100000)"
fill="#000000" stroke="none">
<path d="M2354 6864 c-71 -75 -146 -155 -168 -178 -21 -23 -100 -106 -176
-186 -76 -80 -152 -161 -170 -180 -18 -19 -99 -105 -180 -190 -81 -85 -162
-171 -180 -190 -18 -19 -99 -105 -180 -190 -81 -85 -167 -175 -190 -200 -23
-25 -106 -112 -184 -195 -78 -82 -168 -177 -199 -210 l-57 -60 0 -2542 0
-2543 2830 0 2830 0 0 3500 0 3500 -1923 0 -1924 0 -129 -136z m3529 -303 c4
-1 7 -1379 7 -3063 l0 -3063 -2377 2 c-1308 0 -2384 2 -2390 2 -10 1 -13 455
-13 2236 l0 2235 825 0 825 0 0 58 c1 31 1 401 1 822 0 420 2 767 4 770 2 4
3081 5 3118 1z m-3558 -797 l-1 -417 -389 1 c-215 0 -395 1 -401 1 -6 1 17 30
50 65 84 87 323 340 365 385 19 20 98 104 176 186 78 83 153 162 166 177 13
14 26 25 29 23 3 -2 5 -191 5 -421z"/>
<path d="M1495 3872 c-8 -8 -6 -232 3 -233 4 0 41 -2 82 -4 41 -2 85 -6 97 -8
57 -14 103 -56 133 -123 19 -44 120 -318 200 -544 84 -237 399 -1117 485
-1355 45 -126 123 -341 171 -477 l88 -248 94 1 94 1 13 31 c7 18 34 93 59 167
25 74 49 142 53 150 3 8 7 20 9 25 1 6 34 100 74 210 182 511 207 581 297 837
32 92 62 166 67 165 5 -2 21 -39 36 -82 15 -44 76 -215 134 -380 59 -165 121
-338 137 -385 17 -47 39 -107 49 -135 28 -77 63 -174 130 -365 34 -96 68 -190
76 -208 l13 -32 88 0 c48 0 93 4 100 8 7 4 51 120 98 257 48 138 104 302 126
365 23 63 51 147 64 185 13 39 43 124 66 190 23 66 61 176 84 245 61 177 121
349 215 620 45 129 108 312 140 405 102 300 128 359 179 412 56 59 84 67 249
73 9 0 12 31 12 118 l0 119 -495 0 -495 0 0 -119 c0 -87 3 -118 13 -118 193
-8 245 -18 276 -51 19 -21 20 -33 7 -114 -6 -35 -46 -168 -80 -269 -68 -196
-122 -355 -206 -596 -51 -146 -124 -358 -163 -472 -40 -114 -75 -204 -79 -200
-6 7 -19 42 -103 282 -20 58 -40 114 -45 125 -5 11 -34 94 -65 185 -32 91 -80
228 -107 305 -28 77 -56 158 -63 180 -8 22 -34 99 -60 170 -72 203 -100 323
-89 381 10 56 39 68 164 69 59 1 111 4 116 8 5 3 10 56 9 119 l0 113 -621 1
-621 1 0 -119 c0 -78 4 -118 11 -119 6 0 46 -2 88 -4 108 -4 164 -36 222 -124
23 -36 48 -79 55 -96 11 -26 91 -248 137 -383 15 -43 15 -44 -42 -205 -31 -89
-85 -245 -121 -347 -35 -102 -86 -250 -114 -330 -28 -80 -55 -159 -60 -177
-15 -49 -27 -48 -43 4 -8 26 -40 120 -71 208 -31 88 -104 295 -162 460 -58
165 -132 377 -165 470 -111 317 -137 407 -130 452 2 13 17 32 34 45 26 18 47
22 127 24 53 2 99 3 102 3 4 1 6 54 5 119 l-1 117 -587 1 c-324 0 -590 -1
-593 -4z"/>
</g>
</svg>
